<?xml version="1.0" standalone="no"?>
<!DOCTYPE svg PUBLIC "-//W3C//DTD SVG 20010904//EN"
 "http://www.w3.org/TR/2001/REC-SVG-20010904/DTD/svg10.dtd">
<svg version="1.0" xmlns="http://www.w3.org/2000/svg"
 width="848.000000pt" height="848.000000pt" viewBox="0 0 848.000000 848.000000"
 preserveAspectRatio="xMidYMid meet">
<metadata>
Created by potrace 1.14, written by Peter Selinger 2001-2017
</metadata>
<g transform="translate(0.000000,848.000000) scale(0.100000,-0.100000)"
fill="#000000" stroke="none">
<path d="M4301 7100 c-12 -28 -47 -103 -77 -168 -65 -135 -107 -225 -109 -232
0 -3 -9 -21 -20 -40 -10 -19 -20 -39 -21 -45 -1 -5 -30 -68 -64 -140 -34 -71
-72 -152 -85 -180 -21 -45 -47 -101 -160 -340 -18 -38 -44 -95 -58 -125 -13
-30 -45 -98 -70 -150 -25 -52 -63 -133 -85 -180 -46 -98 -94 -202 -164 -350
-28 -58 -60 -127 -73 -155 -13 -27 -43 -93 -68 -145 -25 -52 -61 -129 -80
-170 -19 -41 -50 -106 -68 -145 -18 -38 -34 -72 -34 -75 -1 -3 -20 -45 -44
-94 -60 -124 -104 -220 -106 -226 -1 -7 -53 -116 -92 -192 -19 -38 -30 -68
-26 -68 4 0 4 -4 -2 -8 -10 -7 -21 -29 -65 -127 -13 -27 -48 -102 -78 -165
-30 -63 -67 -142 -82 -175 -15 -33 -47 -100 -70 -150 -23 -49 -57 -121 -75
-160 -42 -90 -103 -220 -171 -364 -30 -62 -54 -115 -54 -117 0 -2 -20 -44 -44
-93 -24 -49 -41 -92 -38 -95 3 -3 0 -6 -6 -6 -7 0 -12 -4 -12 -9 0 -10 -64
-154 -81 -181 -5 -8 -12 -22 -16 -30 -6 -15 -22 -49 -163 -353 -45 -98 -81
-179 -79 -181 2 -2 58 -27 124 -56 66 -29 145 -64 175 -78 30 -14 57 -26 60
-27 5 -1 82 -36 155 -70 16 -8 30 -13 31 -12 2 2 96 204 167 357 12 25 21 48
22 52 0 4 6 13 13 19 6 7 12 17 12 21 0 4 23 56 50 114 28 58 50 110 50 115 0
5 4 9 8 9 5 0 9 6 9 13 0 6 28 68 61 137 33 69 69 145 80 170 11 25 50 107 86
184 36 76 66 139 66 141 0 1 36 78 80 169 44 92 80 169 80 171 0 1 25 56 56
121 184 388 207 438 209 444 1 3 19 43 42 90 22 47 52 110 66 140 14 30 52
113 86 183 34 71 61 130 61 132 0 1 28 61 61 131 34 71 74 156 89 189 15 33
49 105 75 160 93 197 118 250 119 255 1 3 27 58 59 123 31 65 57 120 57 122 0
2 29 64 64 137 35 74 74 159 87 189 12 29 28 61 36 70 7 8 13 21 13 27 0 19
34 82 43 79 5 -1 21 -32 36 -67 16 -36 38 -86 50 -112 11 -27 31 -69 42 -95
12 -27 32 -72 45 -101 13 -29 24 -54 24 -56 0 -2 17 -39 37 -82 20 -44 37 -81
37 -84 1 -6 202 -459 247 -558 16 -34 29 -64 29 -67 0 -2 13 -32 29 -67 16
-35 52 -117 81 -183 29 -66 65 -147 80 -180 15 -33 42 -94 60 -135 36 -83 50
-115 131 -297 12 -27 29 -66 39 -88 48 -109 64 -145 91 -203 16 -35 29 -65 29
-66 0 -2 12 -30 27 -62 15 -33 27 -61 28 -64 0 -3 6 -15 13 -26 6 -12 8 -24 5
-28 -3 -3 -1 -6 5 -6 7 0 12 -9 12 -20 0 -11 5 -20 10 -20 6 0 10 -6 10 -12 0
-12 119 -287 197 -455 18 -40 33 -75 33 -77 0 -3 18 -44 40 -91 22 -47 40 -88
40 -91 0 -2 18 -43 40 -90 22 -47 40 -88 40 -91 0 -4 11 -30 25 -60 50 -107
74 -161 125 -278 57 -133 62 -143 119 -268 35 -76 43 -86 58 -78 17 9 102 48
193 88 25 11 74 34 110 50 36 17 83 38 105 48 96 41 115 50 115 57 0 9 -74
181 -124 288 -11 25 -21 47 -22 50 -1 9 -24 63 -44 105 -10 22 -50 112 -88
200 -39 88 -81 183 -93 210 -12 28 -23 52 -23 55 -1 6 -44 103 -87 198 -16 35
-29 66 -29 68 0 3 -13 33 -29 67 -16 34 -41 90 -55 124 -14 35 -38 89 -52 120
-14 32 -33 74 -41 93 -20 46 -44 100 -82 183 -17 37 -31 70 -31 73 0 2 -9 26
-21 52 -12 26 -25 56 -29 67 -5 11 -23 51 -40 88 -28 62 -51 114 -55 127 -1 3
-12 27 -24 55 -43 97 -50 111 -86 195 -21 47 -46 103 -55 125 -10 22 -30 68
-44 102 -14 35 -37 87 -50 115 -14 29 -39 87 -56 128 -18 41 -42 98 -55 125
-12 28 -33 75 -46 105 -12 30 -26 59 -31 64 -4 6 -8 18 -8 28 0 10 -4 18 -10
18 -5 0 -10 6 -10 14 0 11 -28 79 -80 191 -5 11 -43 99 -85 195 -42 96 -80
184 -85 195 -59 128 -150 342 -150 352 0 7 -4 13 -10 13 -5 0 -9 3 -8 8 1 4
-4 18 -9 32 -34 78 -83 191 -102 233 -33 73 -56 125 -91 207 -18 41 -43 99
-56 128 -13 29 -24 55 -24 57 0 3 -28 62 -61 132 -84 174 -119 252 -119 261 0
5 -6 14 -12 20 -7 7 -13 16 -13 20 -1 4 -16 39 -34 77 -18 39 -37 80 -42 93
-13 34 -24 27 -48 -28z"/>
<path d="M4274 3574 c-75 -13 -146 -40 -196 -76 -41 -30 -118 -108 -118 -120
0 -6 -9 -21 -20 -36 -29 -36 -60 -146 -62 -217 -11 -392 402 -640 722 -435
202 130 280 407 175 626 -40 83 -118 166 -191 204 -27 14 -52 30 -56 35 -4 6
-8 7 -8 3 0 -4 -15 -2 -32 3 -70 20 -145 25 -214 13z"/>
</g>
</svg>
